<svg fill="#000000" height="64px" width="64px" version="1.1" id="Layer_1" xmlns="http://www.w3.org/2000/svg" xmlns:xlink="http://www.w3.org/1999/xlink" viewBox="0 0 512 512" xml:space="preserve"><g id="SVGRepo_bgCarrier" stroke-width="0"></g><g id="SVGRepo_tracerCarrier" stroke-linecap="round" stroke-linejoin="round"></g><g id="SVGRepo_iconCarrier"> <g> <g> <g> <path d="M439.242,429.002c-4.465,0-8.084,3.619-8.084,8.084v4.312c0,4.466,3.62,8.084,8.084,8.084 c4.465,0,8.084-3.619,8.084-8.084v-4.312C447.326,432.621,443.706,429.002,439.242,429.002z"></path> <path d="M447.326,327.141c0-4.466-3.62-8.084-8.084-8.084c-4.465,0-8.084,3.619-8.084,8.084v4.312 c0,4.466,3.62,8.084,8.084,8.084c4.465,0,8.084-3.619,8.084-8.084V327.141z"></path> <path d="M66.859,433.713c-3.054,3.257-2.889,8.374,0.369,11.428c1.56,1.462,3.546,2.186,5.527,2.186 c2.156,0,4.308-0.858,5.899-2.555l159.289-169.909h71.951c2.22,0,4.342-0.913,5.869-2.524L495.831,82.266v10.2 c0,4.466,3.62,8.084,8.084,8.084c4.465,0,8.084-3.619,8.084-8.084V61.979c0-4.466-3.62-8.084-8.084-8.084h-30.487 c-4.465,0-8.084,3.618-8.084,8.084c0,4.466,3.62,8.084,8.084,8.084h11.692L306.417,258.695h-71.975 c-2.234,0-4.37,0.925-5.898,2.555L66.859,433.713z"></path> <path d="M447.326,363.79c0-4.466-3.62-8.084-8.084-8.084c-4.465,0-8.084,3.618-8.084,8.084v4.312c0,4.466,3.62,8.084,8.084,8.084 c4.465,0,8.084-3.618,8.084-8.084V363.79z"></path> <path d="M447.326,400.438c0-4.466-3.62-8.084-8.084-8.084c-4.465,0-8.084,3.618-8.084,8.084v4.312 c0,4.466,3.62,8.084,8.084,8.084c4.465,0,8.084-3.618,8.084-8.084V400.438z"></path> <path d="M329.297,156.295h4.312c4.465,0,8.084-3.618,8.084-8.084c0-4.466-3.62-8.084-8.084-8.084h-4.312 c-4.465,0-8.084,3.618-8.084,8.084C321.212,152.676,324.832,156.295,329.297,156.295z"></path> <path d="M365.945,156.295h4.312c4.465,0,8.084-3.618,8.084-8.084c0-4.466-3.62-8.084-8.084-8.084h-4.312 c-4.465,0-8.084,3.618-8.084,8.084C357.861,152.676,361.48,156.295,365.945,156.295z"></path> <path d="M256,156.295h4.312c4.465,0,8.084-3.618,8.084-8.084c0-4.466-3.62-8.084-8.084-8.084H256 c-4.465,0-8.084,3.618-8.084,8.084C247.915,152.676,251.535,156.295,256,156.295z"></path> <path d="M292.648,156.295h4.312c4.465,0,8.084-3.618,8.084-8.084c0-4.466-3.62-8.084-8.084-8.084h-4.312 c-4.465,0-8.084,3.618-8.084,8.084C284.564,152.676,288.184,156.295,292.648,156.295z"></path> <path d="M447.326,253.844c0-4.466-3.62-8.084-8.084-8.084c-4.465,0-8.084,3.618-8.084,8.084v4.312 c0,4.466,3.62,8.084,8.084,8.084c4.465,0,8.084-3.618,8.084-8.084V253.844z"></path> <path d="M72.758,156.295h4.312c4.465,0,8.084-3.618,8.084-8.084c0-4.466-3.62-8.084-8.084-8.084h-4.312 c-4.465,0-8.084,3.618-8.084,8.084C64.673,152.676,68.293,156.295,72.758,156.295z"></path> <path d="M447.326,290.493c0-4.466-3.62-8.084-8.084-8.084c-4.465,0-8.084,3.618-8.084,8.084v4.312 c0,4.466,3.62,8.084,8.084,8.084c4.465,0,8.084-3.618,8.084-8.084V290.493z"></path> <path d="M509.632,476.642l-21.558-21.558c-3.156-3.156-8.275-3.156-11.432,0c-3.157,3.157-3.157,8.275,0,11.433l7.758,7.757H51.2 c-7.43,0-13.474-6.044-13.474-13.474V27.601l7.758,7.758c3.156,3.156,8.275,3.156,11.432,0c3.157-3.157,3.157-8.275,0-11.433 L35.358,2.367c-3.156-3.156-8.275-3.156-11.432,0L2.368,23.925c-3.157,3.157-3.157,8.275,0,11.433 c3.156,3.156,8.275,3.156,11.432,0l7.758-7.758V460.8c0,16.344,13.298,29.642,29.642,29.643h433.199l-7.758,7.757 c-3.157,3.157-3.157,8.275,0,11.433c1.578,1.578,3.648,2.367,5.716,2.367s4.138-0.789,5.716-2.367l21.558-21.558 C512.79,484.917,512.79,479.799,509.632,476.642z"></path> <path d="M146.054,156.295h4.312c4.465,0,8.084-3.618,8.084-8.084c0-4.466-3.62-8.084-8.084-8.084h-4.312 c-4.465,0-8.084,3.618-8.084,8.084C137.97,152.676,141.59,156.295,146.054,156.295z"></path> <path d="M109.406,156.295h4.312c4.465,0,8.084-3.618,8.084-8.084c0-4.466-3.62-8.084-8.084-8.084h-4.312 c-4.465,0-8.084,3.618-8.084,8.084C101.322,152.676,104.941,156.295,109.406,156.295z"></path> <path d="M447.326,217.196c0-4.466-3.62-8.084-8.084-8.084c-4.465,0-8.084,3.618-8.084,8.084v4.312 c0,4.466,3.62,8.084,8.084,8.084c4.465,0,8.084-3.619,8.084-8.084V217.196z"></path> <path d="M447.326,180.547c0-4.466-3.62-8.084-8.084-8.084c-4.465,0-8.084,3.619-8.084,8.084v4.312 c0,4.466,3.62,8.084,8.084,8.084c4.465,0,8.084-3.618,8.084-8.084V180.547z"></path> <path d="M219.351,156.295h4.312c4.465,0,8.084-3.618,8.084-8.084c0-4.466-3.62-8.084-8.084-8.084h-4.312 c-4.465,0-8.084,3.618-8.084,8.084C211.267,152.676,214.887,156.295,219.351,156.295z"></path> <path d="M182.703,156.295h4.312c4.465,0,8.084-3.618,8.084-8.084c0-4.466-3.62-8.084-8.084-8.084h-4.312 c-4.465,0-8.084,3.618-8.084,8.084C174.619,152.676,178.238,156.295,182.703,156.295z"></path> </g> </g> </g> </g></svg>