<svg xmlns="http://www.w3.org/2000/svg" viewBox="0 0 64 64" data-di-res-id="5bccf021-57e6a7ab" data-di-rand="1691327796101">
  <path fill="#1E1E1E" fill-rule="evenodd" d="M39.8733188,50.0604474 L43.0734204,50.0604474 L43.0734204,14.6208305 L39.8733188,14.6208305 L39.8733188,50.0604474 Z M46.2744799,50.0604474 L49.4745815,50.0604474 L49.4745815,14.6208305 L46.2744799,14.6208305 L46.2744799,50.0604474 Z M52.6746831,50.0604474 L55.8747847,50.0604474 L55.8747847,14.6208305 L52.6746831,14.6208305 L52.6746831,50.0604474 Z M36.6727383,14.6204474 L36.6727383,50.0600643 L8.93692784,50.0600643 L8.93692784,14.6204474 L36.6727383,14.6204474 Z M27.9967369,32.9992411 C25.3320609,32.9992411 23.1644973,35.2453466 23.1644973,38.0058054 C23.1644973,40.7662642 25.3320609,43.0123697 27.9967369,43.0123697 C30.6623708,43.0123697 32.8308922,40.7662642 32.8308922,38.0058054 C32.8308922,35.2453466 30.6623708,32.9992411 27.9967369,32.9992411 Z M20.339864,33.3881191 L16.9750161,36.8736533 L13.6733847,33.4542092 L12.4962148,34.6735236 L15.7978461,38.0929677 L12.5239918,41.4846348 L13.7011617,42.7020335 L16.9750161,39.3103664 L20.312087,42.7681236 L21.489257,41.5507249 L18.1521861,38.0929677 L21.517034,34.6064757 L20.339864,33.3881191 Z M27.9971201,34.7087716 C29.7528178,34.7087716 31.1809386,36.1876573 31.1809386,38.0056138 C31.1809386,39.8235704 29.7528178,41.302456 27.9971201,41.302456 C26.2414223,41.302456 24.8142593,39.8235704 24.8142593,38.0056138 C24.8142593,36.1876573 26.2414223,34.7087716 27.9971201,34.7087716 Z M27.9890743,21.7782922 L22.5955477,31.6534935 L33.6335517,31.6534935 L27.9890743,21.7782922 Z M21.495004,22.4985784 L12.6590454,22.4985784 L12.6590454,31.6534935 L21.495004,31.6534935 L21.495004,22.4985784 Z M28.0112959,24.894967 L30.9776876,30.086392 L25.1770844,30.086392 L28.0112959,24.894967 Z M19.9265615,24.1243948 L19.9265615,30.0265278 L14.2284458,30.0265278 L14.2284458,24.1243948 L19.9265615,24.1243948 Z"></path>
</svg>