<svg xmlns="http://www.w3.org/2000/svg" viewBox="0 0 64 64" data-di-res-id="3fee7166-6a96b4f" data-di-rand="1691327796108">
  <path fill-rule="evenodd" d="M52.64,50.21 C52.52,48.34 51.31,40.96 51.3,40.91 C50.8810446,38.8543847 49.0972551,37.3609796 47,37.31 C45.63,37.31 44.46,38.31 43.27,39.02 L38.69,39.02 C37.49,38.28 36.33,37.31 34.96,37.31 C32.8651341,37.3618917 31.0847255,38.8559409 30.67,40.91 C30.67,40.96 29.44,48.34 29.32,50.21 C29.2,52.08 31.09,52.2100033 31.68,52.2100033 C32.6725785,52.2106875 33.6251637,51.8188694 34.33,51.12 C35.3304444,49.8806227 36.1985011,48.5399946 36.92,47.12 L45.05,47.12 C45.7677856,48.542129 46.6360886,49.8831375 47.64,51.12 C48.3405291,51.8192079 49.2902369,52.2113221 50.28,52.2100033 C50.87,52.18 52.77,52.18 52.64,50.21 Z M43.35,22.44 L37.88,22.44 C39.6477667,21.6124399 40.7723524,19.8318458 40.76,17.88 C40.76,14.69 38.37,12.45 34.95,12.45 C32.82,12.45 30.16,13.97 28.49,16.64 C26.81,14 24.15,12.45 22,12.45 C18.58,12.45 16.19,14.69 16.19,17.88 C16.1776476,19.8318458 17.3022333,21.6124399 19.07,22.44 L13.62,22.44 C13.1063752,22.44 12.69,22.8563752 12.69,23.37 L12.69,28.49 C12.6954811,28.9997153 13.1102552,29.4100544 13.62,29.4100544 L26.16,29.4100544 L26.16,22.41 L30.81,22.41 L30.81,29.4100544 L43.35,29.4100544 C43.5957272,29.4126711 43.83231,29.3169233 44.0070124,29.1440995 C44.1817147,28.9712756 44.28,28.7357417 44.28,28.49 L44.28,23.37 C44.28,22.8563752 43.8636248,22.44 43.35,22.44 L43.35,22.44 Z M19.47,17.88 C19.4781108,17.2420827 19.7602684,16.6384868 20.2445153,16.2231446 C20.7287622,15.8078024 21.368289,15.6208627 22,15.71 C23.42,15.71 26,17.49 26.67,20.78 C23.07,20.63 19.47,20 19.47,17.88 Z M30.28,20.78 C30.95,17.49 33.53,15.71 34.95,15.71 C35.5848575,15.6145264 36.2299602,15.7985611 36.7188859,16.2146272 C37.2078115,16.6306933 37.4926794,17.2380454 37.5,17.88 C37.5,20 33.9,20.63 30.28,20.78 Z M14.55,42 C14.55,43.023357 15.3766578,43.8544981 16.4,43.86 L26.16,43.86 L26.16,31.74 L14.55,31.74 L14.55,42 Z M30.81,35.9 C32.0256089,35.0097075 33.49324,34.5298377 35,34.53 C36.6562294,34.6194821 38.2447957,35.2165037 39.55,36.24 L42.47,36.24 L42.47,31.74 L30.81,31.74 L30.81,35.9 Z"></path>
</svg>