<svg xmlns="http://www.w3.org/2000/svg" viewBox="0 0 64 64" data-di-res-id="678d6130-206e9a9" data-di-rand="1691327796107">
  <path d="M47.7477342,17 C51.4867946,17 54.0261034,20.8004812 52.5952927,24.2552514 L52.5952927,24.2552514 L44.9282299,42.7651215 C44.1163063,44.7259054 42.2029041,46.0040417 40.0806714,46.0040417 L40.0806714,46.0040417 L16.2470858,46.0040417 C13.3491969,46.0040417 11,43.6548448 11,40.7569559 L11,40.7569559 L11,22.2470858 C11,19.3491969 13.3491969,17 16.2470858,17 L16.2470858,17 Z M19.3725238,21.2854125 L14.9356068,21.2854125 L14.9356068,33.5449915 C14.9356068,35.1799531 15.2614292,36.6441064 15.9136589,37.9380366 C16.5658886,39.2325517 17.5287318,40.2439465 18.8033583,40.9739759 C20.0779849,41.7034202 21.6006342,42.0684349 23.3718912,42.0684349 C25.1431483,42.0684349 26.6652126,41.7034202 27.9404241,40.9739759 C29.2144657,40.2445315 30.1778938,39.2325517 30.8301235,37.9380366 C31.4817683,36.6441064 31.8081756,35.1793681 31.8081756,33.5449915 L31.8081756,21.2854125 L27.3712586,21.2854125 L27.3712586,33.1946009 L27.3706736,33.1946009 C27.3706736,34.6932668 27.0249626,35.8462218 26.3341256,36.6534658 C25.6432886,37.4612947 24.6558771,37.8649167 23.3713063,37.8649167 C22.0867354,37.8649167 21.099324,37.4612947 20.4084869,36.6534658 C19.7176499,35.8462218 19.3725238,34.6932668 19.3725238,33.1946009 L19.3725238,21.2854125 Z M42.0402854,20.9356068 L38.601894,20.9356068 L38.601894,26.0376227 L33.5004632,26.0370377 L33.5004632,29.475429 L38.6013091,29.475429 L38.601894,34.5768599 L42.0402854,34.5768599 L42.0402854,29.476014 L46.2853357,29.476014 L47.7301854,26.0376227 L42.0402854,26.0376227 L42.0402854,20.9356068 Z"></path>
</svg>