<svg xmlns="http://www.w3.org/2000/svg" viewBox="0 0 64 64" data-di-res-id="87521603-7c46d7a6" data-di-rand="1691327796109">
  <path fill-rule="evenodd" d="M44.3560259,12 C44.9300081,12.0283734 45.4795421,12.2325294 45.9313303,12.5821379 L46.0960259,12.72 L50.4060259,17 C50.7959552,17.4339836 51.0404671,17.9767873 51.1087435,18.5526499 L51.1260259,18.77 L51.1260259,29.68 C51.0978141,30.2513766 50.8935336,30.7981715 50.5438944,31.246596 L50.4060259,31.41 L30.9960259,50.83 C30.8075427,51.0255519 30.5476258,51.1360259 30.2760259,51.1360259 C30.0496928,51.1360259 29.8314727,51.0593078 29.6559437,50.9205685 L29.5560259,50.83 L12.3060259,33.57 C12.1104741,33.3815168 12,33.1215998 12,32.85 C12,32.6236668 12.0767181,32.4054467 12.2154574,32.2299178 L12.3060259,32.13 L31.7160259,12.72 C32.1430204,12.3357501 32.6758102,12.0922228 33.242197,12.0192934 L33.4560259,12 L44.3560259,12 Z M29.7760259,35.33 C28.0460259,37.05 27.7560259,38.92 29.2160259,40.38 C30.6273593,41.7913333 32.4405037,41.5860778 34.1134815,40.0081233 L34.2860259,39.84 L34.2460259,39.84 C36.0060259,38.09 36.2660259,36.15 34.8460259,34.74 C33.4260259,33.33 31.5060259,33.61 29.7760259,35.33 Z M31.2760259,36.87 C32.1660259,36 33.0160259,35.57 33.5060259,36.05 C33.9960259,36.53 33.5760259,37.41 32.6960259,38.29 C31.8160259,39.17 30.9360259,39.55 30.4660259,39.08 C29.9960259,38.61 30.3960259,37.74 31.2760259,36.87 Z M38.5460259,29.21 L22.2560259,33.46 L23.7260259,34.92 L40.0060259,30.64 L38.5460259,29.21 Z M28.0060259,24.24 C26.2360259,26 25.9860259,27.84 27.4460259,29.29 C28.9060259,30.74 30.7560259,30.5 32.5060259,28.74 C34.2560259,26.98 34.5160259,25.06 33.0860259,23.65 C31.6560259,22.24 29.7560259,22.48 28.0060259,24.24 Z M31.7360259,24.96 C32.2260259,25.44 31.8360259,26.32 30.9460259,27.21 C30.0760259,28.08 29.1660259,28.46 28.6960259,27.99 C28.2260259,27.52 28.6160259,26.68 29.5060259,25.78 C30.3960259,24.88 31.2460259,24.48 31.7360259,24.96 Z M43.5755211,17.0223307 L43.3707212,17.0332809 C42.6189408,17.1009411 41.9256649,17.4671637 41.4460259,18.05 C40.2690696,19.048255 40.1089224,20.8054256 41.0860259,22 C42.2900318,23.0050779 44.0808286,22.8439062 45.0860259,21.64 C46.2629823,20.641745 46.4231295,18.8845744 45.4460259,17.69 C44.9747541,17.2908672 44.3886588,17.0599457 43.7793559,17.0262268 L43.5755211,17.0223307 Z"></path>
</svg>