<svg xmlns="http://www.w3.org/2000/svg" viewBox="0 0 64 64" data-di-res-id="87521603-134c235b" data-di-rand="1691327796109">
  <path fill-rule="evenodd" d="M46.14,35.3099815 C49.0166785,35.3046912 51.7774992,36.4430427 53.8144331,38.4743497 C55.8513669,40.5056566 56.9973511,43.2633178 57,46.14 C57,52.1173336 52.1573033,56.9644499 46.1799723,56.9699585 C40.2026413,56.9754578 35.3510493,52.137268 35.3399996,46.1599446 C35.3289876,40.1826212 40.1626894,35.3265577 46.14,35.3099815 Z M50.51,50.32 C50.1581941,51.6841637 49.6054826,52.988428 48.87,54.19 C50.6197487,53.594643 52.1287877,52.4470715 53.17,50.92 L53.17,50.92 L52.5082812,50.7432812 C51.845,50.576875 51.1775,50.44 50.51,50.32 Z M41.76,50.31 C40.8635442,50.463816 39.9756818,50.6640858 39.1,50.91 L39.1,50.91 L39.2879137,51.175392 C40.3155427,52.5694751 41.7459905,53.6190973 43.39,54.18 C42.6580063,52.9778433 42.1086762,51.6736057 41.76,50.31 Z M48.18,50 C46.8222248,49.8899866 45.4577752,49.8899866 44.1,50 C44.5240868,51.472131 45.2305455,52.8476876 46.18,54.05 C47.1085208,52.8459099 47.7883676,51.4692202 48.18,50 Z M54.21,43.42 C53.134928,43.759205 52.0393871,44.0297501 50.93,44.23 C50.9998171,44.8541927 51.033207,45.481923 51.03,46.11 C51.033189,46.7414024 50.9997997,47.3724594 50.93,48 C52.041106,48.2053455 53.136966,48.4859925 54.21,48.84 C54.5001225,47.9693238 54.648677,47.0577398 54.650005,46.14 C54.6509995,45.215536 54.5024128,44.2970002 54.21,43.42 Z M38.11,43.44 C37.812696,44.3057187 37.6606436,45.2146541 37.66,46.13 L37.66,46.13 L37.63,46.14 C37.6404733,47.0570098 37.8026655,47.9659618 38.11,48.83 C39.180696,48.4873055 40.2731403,48.2167001 41.38,48.02 C41.28,47.42 41.28,46.79 41.28,46.13 C41.2817974,45.5020532 41.3151729,44.8745941 41.38,44.25 C40.2741527,44.0485598 39.1820132,43.7780298 38.11,43.44 Z M48.62,44.56 C47.8,44.68 46.97,44.68 46.14,44.68 C45.31,44.68 44.49,44.64 43.66,44.56 C43.5533064,45.6072896 43.5533064,46.6627104 43.66,47.71 L43.66,47.71 L43.66,47.72 C45.3096283,47.5666657 46.9697668,47.5633187 48.62,47.71 C48.7399672,46.6634267 48.7399672,45.6065733 48.62,44.56 Z M46.13,38.21 C45.2129768,39.4212279 44.5342892,40.7955701 44.13,42.26 C45.4877752,42.3700134 46.8522248,42.3700134 48.21,42.26 L48.177,42.261 L48.0611161,41.8701828 C47.683323,40.6781715 47.1160649,39.5547238 46.3811509,38.5430322 Z M18.51,20.49 C19.4511899,20.4939863 20.3762502,20.7347083 21.2,21.19 C21.15,21.54 21.15,21.89 21.15,22.25 C21.1482371,24.9784103 22.1157629,27.618728 23.88,29.7 C23.7198295,30.0474945 23.5325858,30.3818581 23.32,30.7 C18.6808511,32.4812766 16.292766,36.1879312 16.2401214,41.8199638 L16.24,42.19 L8.78,42.19 C8.78,37.91 10.63,35.58 15,34.85 C15.31,34.79 15.85,34.67 16,34.23 C16.0084543,34.1792385 16.0112723,34.1277778 16.0084543,34.0765501 L16,34 L16,32.76 C13.8195338,31.6316212 12.4671658,29.364758 12.51,26.91 C12.4533529,25.2627489 13.0538836,23.6605491 14.1792992,22.4563544 C15.3047148,21.2521597 16.8626852,20.5447633 18.51,20.49 Z M31.7,13.9 C36,13.9 39.5,17.65 39.5,22.27 C39.5465425,25.3697909 37.886867,28.2358432 35.1953337,29.7427443 L34.94,29.88 L34.94,31.46 C34.9451405,31.5615829 34.9619168,31.6622409 34.99,31.76 C35.19,32.33 35.9,32.49 36.34,32.56 C37.7350883,32.7619015 39.0868721,33.1944723 40.34,33.84 C36.9861026,35.421985 34.4244789,38.2968439 33.2344132,41.7978382 L33.12,42.15 L18.97,42.15 C18.97,36.56 21.38,33.56 27.1,32.56 C27.54,32.49 28.25,32.33 28.45,31.76 C28.4580942,31.693579 28.4607923,31.6266667 28.4580942,31.5599181 L28.45,31.46 L28.45,29.88 C25.6140798,28.4101997 23.8524475,25.4638214 23.9,22.27 C23.7481737,17.806862 27.2372494,14.0628154 31.7,13.9 Z M43.43,38.08 L43.41,38.09 C41.6593312,38.6944781 40.1533102,39.8529558 39.12,41.39 L39.12,41.39 L39.7782465,41.5710114 C40.4389486,41.7425658 41.106813,41.8857027 41.78,42 C42.1333601,40.6190074 42.6893983,39.2979955 43.43,38.08 L43.43,38.08 Z M48.91,38.1 C49.6436419,39.3060845 50.1962027,40.6133626 50.55,41.98 C51.4471432,41.8254062 52.3351411,41.6217676 53.21,41.37 L53.186,41.375 L53.0024705,41.1145762 C52.0411006,39.8073115 50.7273162,38.800486 49.2150533,38.2120696 Z M44.94,20.51 C46.5882191,20.562127 48.147767,21.2687202 49.2737413,22.4735128 C50.3997157,23.6783053 50.9993385,25.2820248 50.94,26.93 C50.968248,29.2755852 49.7247114,31.4527308 47.69,32.62 C47.1488449,32.5596374 46.6044652,32.5329194 46.06,32.54 C45.2210929,32.5436232 44.3842748,32.6239577 43.56,32.78 C42.5324151,31.890902 41.3537762,31.193202 40.08,30.72 C39.8651964,30.4032223 39.6778485,30.0686725 39.52,29.72 C41.2768268,27.6351171 42.2402295,24.9963854 42.24,22.27 C42.2601743,21.9169546 42.2601743,21.5630454 42.24,21.21 C43.0673562,20.7546885 43.9956427,20.5140216 44.94,20.51 Z"></path>
</svg>