<svg xmlns="http://www.w3.org/2000/svg" viewBox="0 0 64 64" data-di-res-id="c73a7039-d403d485" data-di-rand="1691327796110">
  <path fill-rule="evenodd" d="M40.8977348,45.4 C37.67219,46.8420759 34.1705804,47.5621925 30.6377348,47.51 C24.7077348,47.51 19.4077348,45.7 16.4477348,42.68 C16.0596508,42.2695797 15.9979789,41.6487488 16.2977348,41.17 C16.601174,40.6743393 17.214144,40.4644181 17.7577348,40.67 C21.8577694,42.3187164 26.2200019,43.2196123 30.6377348,43.33 C33.6876387,43.294733 36.717383,42.8301722 39.6377348,41.95 L38.9677348,40.17 C38.819066,39.7578896 38.8988963,39.297915 39.1777348,38.96 C39.455449,38.620275 39.8964435,38.4592162 40.3277348,38.54 L47.5277348,39.78 C47.9597878,39.8611638 48.3191403,40.1599937 48.4777348,40.57 C48.6264036,40.9821104 48.5465733,41.442085 48.2677348,41.78 L43.5877348,47.37 C43.3541943,47.6531635 43.0047465,47.815013 42.6377348,47.81 L42.4377348,47.81 C41.9842306,47.7512074 41.5998951,47.4475823 41.4377348,47.02 L40.8977348,45.4 Z M28.0477348,16 C31.3012699,16.0720552 33.9718817,18.5957401 34.2277348,21.84 C34.2277348,21.84 34.6983981,24.6008418 35.1615791,27.5949654 L35.2998308,28.4976733 C35.6501232,30.8095599 35.9679134,33.11 36.0377348,34.26 C36.2077348,37.06 33.5277348,37.06 32.6877348,37.06 C31.2841161,37.0584647 29.9373209,36.5053808 28.9377348,35.52 C27.5306152,33.7789785 26.3042995,31.8992979 25.2777348,29.91 L25.2777348,29.91 L13.7577348,29.91 C12.7342114,31.901067 11.5076988,33.7810494 10.0977348,35.52 C9.09814865,36.5053808 7.75135346,37.0584647 6.34773479,37.06 C5.51773479,37.06 2.83773479,37.05 3.00773479,34.26 C3.07755622,33.1141071 3.39365953,30.8144005 3.74196385,28.501952 L3.8794253,27.5989627 C4.17108551,25.7019704 4.4656647,23.8978511 4.64247735,22.8298703 L4.69425749,22.5178335 C4.76563339,22.0887341 4.80773479,21.84 4.80773479,21.84 C5.06806036,18.5978816 7.73608484,16.0766416 10.9877348,16 C12.9277348,16 14.5777348,17.37 16.2777348,18.43 L16.2777348,18.43 L22.7677348,18.43 C22.9367348,18.324 23.1054348,18.2149 23.2741348,18.10438 L23.7805348,17.77024 C25.1325348,16.8768 26.5037348,16 28.0477348,16 Z M51.4477348,16.0899986 C55.1875935,16.1352056 58.2900887,18.99606 58.6377348,22.72 C58.8277348,23.89 59.8477348,30.04 59.9777348,32.1 C60.1061262,33.3220279 59.7141062,34.5416459 58.8977348,35.46 C57.8254419,36.4807919 56.3750654,37.0065533 54.8977348,36.91 C53.074486,36.9219329 51.3310963,36.162832 50.0977348,34.82 C49.2693109,33.8059149 48.5204188,32.7293824 47.8577348,31.6 L47.8577348,31.6 L42.3677348,31.6 C41.7026569,32.7334019 40.9503859,33.8133287 40.1177348,34.83 C39.6381721,35.3896431 39.0495098,35.8456012 38.3877348,36.17 C38.6022651,35.4919237 38.6870786,34.7794899 38.6377348,34.07 C38.6177348,33.66 38.5677348,33.21 38.4977348,32.66 C39.37967,31.5082542 40.1624679,30.283878 40.8377348,29 L40.8377348,29 L49.3877348,29 C50.1533906,30.4770424 51.0645745,31.8739677 52.1077348,33.17 C52.8486938,33.9102249 53.8504243,34.3303054 54.8977348,34.34 C55.5177348,34.34 57.5077348,34.37 57.3777348,32.27 C57.2477348,30.17 56.0177348,23.02 56.0177348,23.02 C55.8235556,20.6136225 53.8413371,18.7436865 51.4277348,18.69 C49.9877348,18.69 48.7577348,19.71 47.5077348,20.49 L47.5077348,20.49 L42.6777348,20.49 C41.4177348,19.69 40.1877348,18.69 38.7577348,18.69 C37.9050316,18.6934705 37.071535,18.9435194 36.3577348,19.41 C36.0759708,18.5791023 35.6678482,17.7965862 35.1477348,17.0899986 C36.2378782,16.4349048 37.4859008,16.0891921 38.7577348,16.0899986 C40.4669783,16.1946606 42.1034051,16.8192244 43.4477348,17.88 L43.4477348,17.88 L46.7577348,17.88 C48.1020645,16.8192244 49.7384913,16.1946606 51.4477348,16.0899986 Z"></path>
</svg>