<svg xmlns="http://www.w3.org/2000/svg" viewBox="0 0 64 64" data-di-res-id="50539102-c0a91308" data-di-rand="1691327796102">
  <defs>
    <linearGradient id="game-trials-dark-a" x1="19.416%" x2="80.588%" y1="18.848%" y2="80.973%">
      <stop offset="0%" stop-color="#C3862C"></stop>
      <stop offset="100%" stop-color="#986D29"></stop>
    </linearGradient>
    <linearGradient id="game-trials-dark-b" x1="14.73%" x2="85.448%" y1="23.235%" y2="76.687%">
      <stop offset="3%" stop-color="#FDE64E"></stop>
      <stop offset="100%" stop-color="#FCC013"></stop>
    </linearGradient>
  </defs>
  <g fill="none" fill-rule="evenodd" transform="translate(-1 -1)">
    <path fill="#000" fill-rule="nonzero" d="M26.07,19.72 C25.07,20.22 24.17,20.9 23.24,21.48 L16.64,21.48 C14.92,20.42 13.24,19 11.27,19 C8.25059078,19.0777802 5.68811874,21.2374001 5.1,24.2 C5.1,24.26 3.34,34.88 3.17,37.57 C3,40.26 5.71,40.41 6.56,40.41 C7.9871716,40.408694 9.35623437,39.8445396 10.37,38.84 C11.8060896,37.0754422 13.0529256,35.1649677 14.09,33.14 L25.78,33.14 C26.8208053,35.165081 28.070966,37.0755143 29.51,38.84 C30.5194679,39.8448678 31.885646,40.4093151 33.31,40.41 C34.16,40.41 36.88,40.41 36.71,37.57 C36.57,35.39 35.39,27.97 34.94,25.23 C31.2755201,24.9078522 27.9826081,22.8623116 26.07,19.72 Z"></path>
    <circle cx="35.94" cy="6.21" r="2.27" fill="#000" fill-rule="nonzero"></circle>
    <polygon fill="#000" fill-rule="nonzero" points="27.95 17.66 28.52 18.64 37.33 14.22 36.19 12.26"></polygon>
    <path fill="#000" fill-rule="nonzero" d="M30.16 13.76C30.1599909 12.2129686 30.7759123 10.7295898 31.8717035 9.63755129 32.9674947 8.54551283 34.4529777 7.93468374 36 7.94L36 4.83C31.0875576 4.83 27.0975053 8.7976346 27.07 13.71L27.07 13.71 27.07 13.71C27.054896 14.4808908 27.1389174 15.2505269 27.32 16L30.17 14.13C30.16 14 30.16 13.87 30.16 13.76zM39.94 5.79C39.9670832 5.92856256 39.9837962 6.0689518 39.99 6.21 39.9866137 6.71711544 39.8882503 7.2191079 39.7 7.69 41.9280526 9.10362896 43.1883711 11.6362607 42.9724676 14.2660803 42.7565642 16.8958999 41.1000564 19.1890654 38.6712786 20.2203769 36.2425007 21.2516885 33.4421288 20.8510103 31.4 19.18L29.69 20C32.1676033 22.5295749 35.9100956 23.3476945 39.2172081 22.0826752 42.5243207 20.8176559 44.7654226 17.7107233 44.9223488 14.1734021 45.079275 10.6360809 43.1221012 7.34290024 39.94 5.79L39.94 5.79z"></path>
    <path fill="url(#game-trials-dark-a)" fill-rule="nonzero" d="M60.93,48.67 L60.13,42.79 C60.1017147,42.5710669 59.9863511,42.3727857 59.81,42.24 C59.6316323,42.10885 59.4095573,42.0515403 59.19,42.08 L52.43,43 L51.52,36.3 C51.4881439,36.0798536 51.3692557,35.8817067 51.19,35.75 C51.0151793,35.6115492 50.7899861,35.5534348 50.57,35.59 L44.65,36.4 C44.5392217,36.4107447 44.4327742,36.4485164 44.34,36.51 C44.2427938,36.5574798 44.1599631,36.6299567 44.1,36.72 L44.1,36.72 L42.48,38.84 C42.3433614,39.0159478 42.282211,39.2389672 42.31,39.46 L43,44.3 L43,44.3 L38.1,45 C37.9887076,45.0214973 37.8809879,45.058526 37.78,45.11 C37.6893722,45.1671885 37.6111579,45.2420022 37.55,45.33 C37.5169498,45.3711407 37.4930825,45.4188754 37.48,45.47 C37.4930825,45.4188754 37.5169498,45.3711407 37.55,45.33 L35.92,47.45 C35.7869005,47.6274363 35.7293835,47.8503144 35.76,48.07 L36.57,53.94 C36.5960306,54.159693 36.711874,54.3587989 36.89,54.49 C37.0659478,54.6266386 37.2889672,54.687789 37.51,54.66 L44.26,53.73 L45.18,60.43 C45.2060306,60.649693 45.321874,60.8487989 45.5,60.98 C45.6759478,61.1166386 45.8989672,61.177789 46.12,61.15 L52,60.3 C52.2311872,60.2810572 52.4461334,60.1735841 52.6,60 C52.6,60 54.15,58 54.22,57.88 C54.2843062,57.7928875 54.3317861,57.6945364 54.36,57.59 C54.3855483,57.4814834 54.3855483,57.3685166 54.36,57.26 L53.7,52.43 L58.57,51.76 C58.7918121,51.7321031 58.9933534,51.6169366 59.13,51.44 L60.75,49.31 L60.75,49.31 C60.8123199,49.22535 60.8596719,49.1306459 60.89,49.03 C60.9329497,48.9151664 60.9466948,48.7914607 60.93,48.67 Z"></path>
    <path fill="url(#game-trials-dark-b)" fill-rule="nonzero" d="M60.93,48.67 L60.13,42.79 C60.1017147,42.5710669 59.9863511,42.3727857 59.81,42.24 C59.6316323,42.10885 59.4095573,42.0515403 59.19,42.08 L52.43,43 L51.52,36.3 C51.4881439,36.0798536 51.3692557,35.8817067 51.19,35.75 C51.0151793,35.6115492 50.7899861,35.5534348 50.57,35.59 L44.65,36.4 C44.5392217,36.4107447 44.4327742,36.4485164 44.34,36.51 C44.1677443,36.623403 44.0459377,36.7989477 44,37 C43.9794284,37.1090382 43.9794284,37.2209618 44,37.33 L44.92,44.03 L38.1,45 C37.9887076,45.0214973 37.8809879,45.058526 37.78,45.11 C37.6893722,45.1671885 37.6111579,45.2420022 37.55,45.33 C37.4808357,45.4117259 37.4297194,45.507143 37.4,45.61 C37.3850543,45.7194923 37.3850543,45.8305077 37.4,45.94 L38.21,51.82 C38.2382853,52.0389331 38.3536489,52.2372143 38.53,52.37 C38.7074363,52.5030995 38.9303144,52.5606165 39.15,52.53 L45.9,51.61 L46.82,58.31 C46.8482853,58.5289331 46.9636489,58.7272143 47.14,58.86 C47.3179094,58.9921122 47.5403782,59.0495235 47.76,59.02 L53.68,58.21 C53.7938905,58.199275 53.9035864,58.161567 54,58.1 C54.0907184,58.043289 54.1717486,57.9723876 54.24,57.89 C54.3043062,57.8028875 54.3517861,57.7045364 54.38,57.6 C54.4055483,57.4914834 54.4055483,57.3785166 54.38,57.27 L53.46,50.57 L60.22,49.65 C60.3286968,49.6306963 60.4334469,49.5935269 60.53,49.54 C60.6235821,49.4830205 60.7051132,49.4082836 60.77,49.32 C60.8323199,49.23535 60.8796719,49.1406459 60.91,49.04 C60.9479368,48.9203585 60.9548192,48.7930337 60.93,48.67 L60.93,48.67 Z"></path>
    <path fill="#C3862C" fill-rule="nonzero" d="M56.27 43.66C54.83943 43.8764486 53.8523532 45.2077733 54.0609148 46.6395144 54.2694765 48.0712556 55.5953412 49.0656541 57.02821 48.8649858 58.4610788 48.6643175 59.4627689 47.3439529 59.27 45.91 59.176063 45.2112297 58.8054921 44.5794373 58.2414472 44.1564037 57.6774024 43.73337 56.9671218 43.5545238 56.27 43.66L56.27 43.66zM56.87 47.99C55.9161047 48.1218391 55.0349243 47.4582401 54.89815 46.50504 54.7613756 45.5518398 55.4204049 44.6672367 56.3728844 44.5255306 57.3253639 44.3838246 58.2133661 45.0382667 58.36 45.99 58.4343279 46.4549219 58.3181812 46.9301816 58.0377976 47.3084171 57.7574141 47.6866527 57.3364493 47.9359527 56.87 48L56.87 47.99zM47.7 37.11L45.55 42.51 51.35 41.71 47.7 37.11zM46.93 41.43L47.93 38.85 49.68 41.05 46.93 41.43zM38.88 46.28L39.52 51 44.27 50.35 43.62 45.61 38.88 46.28zM40.28 50L39.87 47 42.87 46.59 43.28 49.59 40.28 50z"></path>
    <polygon fill="#C3862C" fill-rule="nonzero" points="50.81 54.73 52.81 56.29 52.28 56.99 50.22 55.43 48.66 57.49 48 57 49.56 54.94 47.5 53.38 48.04 52.68 50.09 54.24 51.66 52.18 52.36 52.72"></polygon>
    <rect width="65.02" height="65.02" opacity=".5"></rect>
  </g>
</svg>