<svg xmlns="http://www.w3.org/2000/svg" viewBox="0 0 64 64" data-di-res-id="c73a7039-2e29c" data-di-rand="1691327796110">
  <defs>
    <linearGradient id="cloud-storage-dark-a" x1="19.277%" x2="80.755%" y1="18.918%" y2="81.198%">
      <stop offset="0%" stop-color="#C3862C"></stop>
      <stop offset="100%" stop-color="#986D29"></stop>
    </linearGradient>
    <linearGradient id="cloud-storage-dark-b" x1="14.518%" x2="85.36%" y1="23.236%" y2="76.846%">
      <stop offset="3%" stop-color="#FDE64E"></stop>
      <stop offset="100%" stop-color="#FCC013"></stop>
    </linearGradient>
  </defs>
  <g fill="none" fill-rule="evenodd" transform="translate(2 2)">
    <path fill="#000" fill-rule="nonzero" d="M33.05,38.77 C33.4626989,38.5199082 33.9220533,38.3565822 34.4,38.29 L36.1,38.06 L35.87,36.41 C35.7402323,35.4732841 35.9884903,34.5234275 36.56,33.77 L38,31.83 L38,31.83 C38.2740986,31.4673525 38.6131853,31.1587836 39,30.92 C39.3930096,30.6874719 39.8279413,30.5345662 40.28,30.47 L45.72,29.73 C46.6533621,29.6040797 47.5986699,29.8520882 48.35,30.42 C49.1039759,30.9873425 49.5977706,31.8343626 49.72,32.77 L50.18,36.12 L51.08,36 C52.4331059,33.1234159 52.2196249,29.754398 50.5142446,27.0716178 C48.8088643,24.3888375 45.8489327,22.7656737 42.67,22.77 C42.42,22.77 42.18,22.77 41.93,22.77 C39.9251034,17.3150294 34.4347776,13.9524349 28.6645039,14.6454393 C22.8942301,15.3384437 18.3562394,19.9054295 17.7,25.68 C15.2964173,26.0904683 13.2182581,27.5905433 12.071801,29.7425958 C10.9253439,31.8946484 10.8397536,34.4562191 11.84,36.68 L6.72,39.62 C6.36029224,39.8332233 6.18712158,40.2603022 6.29675072,40.6638307 C6.40637986,41.0673593 6.77184904,41.3481025 7.19,41.35 L30.76,41.35 L32.06,39.65 C32.3348567,39.2999527 32.6701423,39.0019212 33.05,38.77 L33.05,38.77 Z"></path>
    <path fill="url(#cloud-storage-dark-a)" fill-rule="nonzero" d="M55.63,44.44 L54.9,39.07 C54.8780751,38.8670719 54.7733069,38.6822109 54.6104752,38.5591405 C54.4476435,38.43607 54.2412098,38.3857203 54.04,38.42 L47.87,39.26 L47,33.14 C46.9715338,32.9396914 46.863347,32.7593801 46.7,32.64 C46.5379134,32.5153602 46.3324421,32.4612888 46.13,32.49 L40.73,33.23 C40.6279597,33.2450253 40.5296137,33.2789377 40.44,33.33 C40.3559365,33.3797259 40.2814327,33.4440701 40.22,33.52 L40.22,33.52 L38.74,35.46 C38.6153602,35.6220866 38.5612888,35.8275579 38.59,36.03 L39.2,40.44 L39.2,40.44 L34.75,41.05 C34.6479597,41.0650253 34.5496137,41.0989377 34.46,41.15 C34.3731912,41.2001439 34.2981658,41.2683488 34.24,41.35 C34.2108246,41.389924 34.1872712,41.4336661 34.17,41.48 C34.1872712,41.4336661 34.2108246,41.389924 34.24,41.35 L32.8,43.29 C32.6748437,43.4479587 32.6205566,43.6506306 32.65,43.85 L33.38,49.22 C33.4467736,49.6361242 33.83202,49.923952 34.25,49.87 L40.41,49 L41.25,55.12 C41.2719249,55.3229281 41.3766931,55.5077891 41.5395248,55.6308595 C41.7023565,55.75393 41.9087902,55.8042797 42.11,55.77 L47.52,55.03 C47.7190891,55.0051139 47.8995395,54.9004527 48.02,54.74 L49.5,52.8 C49.560801,52.7232266 49.6050619,52.6347049 49.63,52.54 C49.6549736,52.4415592 49.6549736,52.3384408 49.63,52.24 L49.03,47.82 L53.48,47.21 C53.6805905,47.1814059 53.8628586,47.0777632 53.99,46.92 L55.49,45 L55.49,45 C55.5432189,44.9186389 55.5868425,44.8313918 55.62,44.74 C55.6432444,44.6416592 55.646644,44.5396704 55.63,44.44 L55.63,44.44 Z"></path>
    <path fill="url(#cloud-storage-dark-b)" fill-rule="nonzero" d="M55.63,44.44 L54.9,39.07 C54.8780751,38.8670719 54.7733069,38.6822109 54.6104752,38.5591405 C54.4476435,38.43607 54.2412098,38.3857203 54.04,38.42 L47.87,39.26 L47,33.14 C46.9715338,32.9396914 46.863347,32.7593801 46.7,32.64 C46.5379134,32.5153602 46.3324421,32.4612888 46.13,32.49 L40.73,33.23 C40.6283711,33.2466828 40.5303115,33.2804965 40.44,33.33 C40.3559365,33.3797259 40.2814327,33.4440701 40.22,33.52 C40.1608336,33.6014805 40.1167997,33.6929355 40.09,33.79 C40.0749147,33.8894311 40.0749147,33.9905689 40.09,34.09 L41,40.21 L34.84,41.05 C34.7379597,41.0650253 34.6396137,41.0989377 34.55,41.15 C34.4631912,41.2001439 34.3881658,41.2683488 34.33,41.35 C34.265299,41.4242265 34.2205606,41.5137033 34.2,41.61 C34.1797959,41.7089795 34.1797959,41.8110205 34.2,41.91 L34.93,47.28 C34.9584662,47.4803086 35.066653,47.6606199 35.23,47.78 C35.3920866,47.9046398 35.5975579,47.9587112 35.8,47.93 L41.96,47.08 L42.8,53.2 C42.8285941,53.4005905 42.9322368,53.5828586 43.09,53.71 C43.2535872,53.8311116 43.4589185,53.8815439 43.66,53.85 L49,53.11 C49.1006389,53.102505 49.1973821,53.0679538 49.28,53.01 C49.3663542,52.9635299 49.4414549,52.8986702 49.5,52.82 C49.560801,52.7432266 49.6050619,52.6547049 49.63,52.56 C49.6549736,52.4615592 49.6549736,52.3584408 49.63,52.26 L48.79,46.14 L55,45.29 C55.1023952,45.2764543 55.2010187,45.2424462 55.29,45.19 C55.3744544,45.1408199 55.4490503,45.0763962 55.51,45 C55.5632189,44.9186389 55.6068425,44.8313918 55.64,44.74 C55.656644,44.6403296 55.6532444,44.5383408 55.63,44.44 L55.63,44.44 Z"></path>
    <path fill="#C3862C" fill-rule="nonzero" d="M51.38 39.86C50.4141801 39.9940039 49.6254342 40.6990296 49.3843474 41.643827 49.1432606 42.5886245 49.4977593 43.5853753 50.2812853 44.1657649 51.0648112 44.7461545 52.1216057 44.794806 52.9551431 44.2888608 53.7886804 43.7829157 54.23326 42.8229519 54.08 41.86 53.8745983 40.5694353 52.6744084 39.6804057 51.38 39.86zM51.92 43.86C51.0594231 43.9716518 50.2682705 43.3726634 50.1422751 42.5140693 50.0162798 41.6554751 50.6019841 40.8544383 51.4583565 40.7141345 52.3147288 40.5738307 53.1254268 41.1460879 53.28 42 53.342808 42.4219722 53.2344939 42.8515536 52.9791226 43.1933004 52.7237513 43.5350473 52.3424733 43.7606556 51.92 43.82L51.92 43.86zM43.55 33.88L41.55 38.81 46.86 38.09 43.55 33.88zM42.84 37.83L43.78 35.47 45.38 37.47 42.84 37.83zM35.49 42.25L36.08 46.58 40.41 46 39.82 41.67 35.49 42.25zM36.77 45.67L36.4 42.94 39.13 42.57 39.51 45.3 36.77 45.67z"></path>
    <polygon fill="#C3862C" fill-rule="nonzero" points="46.39 50 48.27 51.42 47.78 52.07 45.9 50.61 44.47 52.49 43.83 52 45.26 50.12 43.38 48.7 43.87 48.05 45.75 49.48 47.17 47.6 47.81 48.09"></polygon>
    <rect width="59.48" height="59.48" opacity=".5"></rect>
  </g>
</svg>