<svg xmlns="http://www.w3.org/2000/svg" viewBox="0 0 64 64" data-di-res-id="ef054b5c-f2ab471a" data-di-rand="1691327796106">
  <path fill-rule="evenodd" d="M8.08,14.72 L8.08,50.16 L36.87,50.16 L36.87,14.72 L8.08,14.72 Z M30.08,39.6400115 C29.2678108,39.6400115 28.4882577,39.3203239 27.91,38.75 C27.0971214,37.7418581 26.3900691,36.6527966 25.8,35.5 L19.14,35.5 C18.5440693,36.6562343 17.8266902,37.7457119 17,38.75 C16.4229642,39.3221706 15.6426159,39.6422213 14.83,39.6400115 C14.35,39.6400115 12.83,39.6400115 12.9,38.02 C12.97,36.4 14,30.44 14,30.41 C14.337053,28.7232891 15.8003394,27.4969553 17.52,27.46 C18.64,27.46 19.6,28.25 20.57,28.86 L24.33,28.86 C25.33,28.25 26.27,27.46 27.39,27.46 C29.1068719,27.5043509 30.566153,28.7273279 30.91,30.41 C30.91,30.41 31.91,36.49 32.01,38.02 C32.11,39.55 30.58,39.6400115 30.09,39.6400115 L30.08,39.6400115 Z M40.19,14.72 L43.51,14.72 L43.51,50.16 L40.19,50.16 L40.19,14.72 Z M46.84,14.72 L50.16,14.72 L50.16,50.16 L46.84,50.16 L46.84,14.72 Z M53.49,14.72 L56.81,14.72 L56.81,50.16 L53.49,50.16 L53.49,14.72 Z"></path>
</svg>