<svg xmlns="http://www.w3.org/2000/svg" viewBox="0 0 64 64" data-di-res-id="87521603-adf0537b" data-di-rand="1691327796109">
  <defs>
    <linearGradient id="exclusive-packs-dark-a" x1="19.277%" x2="80.755%" y1="18.918%" y2="81.198%">
      <stop offset="0%" stop-color="#C3862C"></stop>
      <stop offset="100%" stop-color="#986D29"></stop>
    </linearGradient>
    <linearGradient id="exclusive-packs-dark-b" x1="14.522%" x2="85.364%" y1="23.249%" y2="76.859%">
      <stop offset="3%" stop-color="#FDE64E"></stop>
      <stop offset="100%" stop-color="#FCC013"></stop>
    </linearGradient>
  </defs>
  <g fill="none" fill-rule="evenodd" transform="translate(2 2)">
    <path fill="#000" fill-rule="nonzero" d="M20,17.19 L27.53,17.19 L29,12.28 C28.7761857,12.0675648 28.4574527,11.9878816 28.16,12.07 L11.11,16.64 C10.8736923,16.7032295 10.6722955,16.8579663 10.5503239,17.0700093 C10.4283523,17.2820523 10.3958496,17.5339406 10.46,17.77 L16.23,39.32 L16.23,39.39 L16.23,20.91 C16.232609,19.9155075 16.6322507,18.9632343 17.3401441,18.2647294 C18.0480375,17.5662245 19.0055613,17.1793317 20,17.19 Z"></path>
    <polygon fill="#000" fill-rule="nonzero" points="15.77 47.36 13.94 51.58 12.11 47.36 7.9 45.54 12.11 43.71 13.94 39.5 15.77 43.71 19.98 45.54"></polygon>
    <path fill="#000" fill-rule="nonzero" d="M36.71,13.94 C36.7128082,13.3205495 36.9202269,12.7193866 37.3,12.23 L33.3,11.14 C32.8011172,11.0252642 32.2961435,11.3058051 32.13,11.79 L30.47,17.19 L39.5,17.19 C39.715071,17.1929769 39.9293705,17.2164159 40.14,17.26 L38.39,16.5 C37.369928,16.0576492 36.7098755,15.0518548 36.71,13.94 L36.71,13.94 Z"></path>
    <polygon fill="#000" fill-rule="nonzero" points="47.37 15.77 45.54 19.98 43.71 15.77 39.5 13.94 43.71 12.11 45.54 7.9 47.37 12.11 51.58 13.94"></polygon>
    <path fill="#000" fill-rule="nonzero" d="M30.58 41.59L32.06 39.66 32.06 39.66C32.3360295 39.307335 32.6751022 39.008951 33.06 38.78 33.4739814 38.5326207 33.932771 38.3694955 34.41 38.3L36.11 38.07 35.98 37.17C35.3534247 37.1403247 34.7609011 36.8761876 34.32 36.43 33.6358644 35.5861135 33.0394538 34.6747445 32.54 33.71L26.94 33.71C26.4444165 34.6769995 25.8477514 35.5887574 25.16 36.43 24.6762947 36.9107063 24.0219452 37.1803559 23.34 37.18 22.94 37.18 21.64 37.18 21.72 35.83 21.8 34.48 22.64 29.47 22.64 29.43 22.9476576 28.0380729 24.1649167 27.0353815 25.59 27 26.538621 27.1503663 27.4276668 27.5585663 28.16 28.18L31.32 28.18C32.0498075 27.560649 32.9350525 27.1526064 33.88 27 35.3198889 27.032334 36.5451183 28.058204 36.83 29.47 36.83 29.47 37.1 31.14 37.35 32.79L38.04 31.88 38.04 31.88C38.3106531 31.5169282 38.650523 31.2110452 39.04 30.98 39.4353985 30.7429722 39.8738391 30.586629 40.33 30.52L40.4 30.52 40.4 20.91C40.3896201 20.4156423 39.9942128 20.0158416 39.5 20L20 20C19.4863752 20 19.07 20.4163752 19.07 20.93L19.07 42.09 21.07 42.98C21.9334044 43.3564748 22.5496665 44.1418332 22.71 45.07L30 45.07 29.89 44.23C29.7568336 43.2930863 30.0054295 42.341937 30.58 41.59zM47.88 30.08L51.88 17.08C51.8952226 16.9973618 51.8952226 16.9126382 51.88 16.83L49.48 17.88 48.09 21.08C47.6814782 22.0195207 46.7908983 22.6595701 45.7701618 22.7472408 44.7494253 22.8349114 43.7627468 22.3560989 43.2 21.5L43.2 30.07 45.79 29.72C46.5070741 29.6242406 47.2362888 29.749847 47.88 30.08L47.88 30.08z"></path>
    <path fill="url(#exclusive-packs-dark-a)" fill-rule="nonzero" d="M55.63,44.44 L54.9,39.07 C54.8780751,38.8670719 54.7733069,38.6822109 54.6104752,38.5591405 C54.4476435,38.43607 54.2412098,38.3857203 54.04,38.42 L47.87,39.26 L47,33.14 C46.9715338,32.9396914 46.863347,32.7593801 46.7,32.64 C46.5379134,32.5153602 46.3324421,32.4612888 46.13,32.49 L40.73,33.23 C40.6279597,33.2450253 40.5296137,33.2789377 40.44,33.33 C40.3559365,33.3797259 40.2814327,33.4440701 40.22,33.52 L40.22,33.52 L38.74,35.46 C38.6153602,35.6220866 38.5612888,35.8275579 38.59,36.03 L39.2,40.44 L39.2,40.44 L34.75,41.05 C34.6479597,41.0650253 34.5496137,41.0989377 34.46,41.15 C34.3731912,41.2001439 34.2981658,41.2683488 34.24,41.35 C34.2108246,41.389924 34.1872712,41.4336661 34.17,41.48 C34.1872712,41.4336661 34.2108246,41.389924 34.24,41.35 L32.8,43.29 C32.6748437,43.4479587 32.6205566,43.6506306 32.65,43.85 L33.38,49.22 C33.4467736,49.6361242 33.83202,49.923952 34.25,49.87 L40.41,49 L41.25,55.12 C41.2719249,55.3229281 41.3766931,55.5077891 41.5395248,55.6308595 C41.7023565,55.75393 41.9087902,55.8042797 42.11,55.77 L47.52,55.03 C47.7190891,55.0051139 47.8995395,54.9004527 48.02,54.74 L49.5,52.8 C49.560801,52.7232266 49.6050619,52.6347049 49.63,52.54 C49.6549736,52.4415592 49.6549736,52.3384408 49.63,52.24 L49.03,47.82 L53.48,47.21 C53.6805905,47.1814059 53.8628586,47.0777632 53.99,46.92 L55.49,45 L55.49,45 C55.5432189,44.9186389 55.5868425,44.8313918 55.62,44.74 C55.6432444,44.6416592 55.646644,44.5396704 55.63,44.44 L55.63,44.44 Z"></path>
    <path fill="url(#exclusive-packs-dark-b)" fill-rule="nonzero" d="M55.63,44.44 L54.9,39.07 C54.8780751,38.8670719 54.7733069,38.6822109 54.6104752,38.5591405 C54.4476435,38.43607 54.2412098,38.3857203 54.04,38.42 L47.87,39.26 L47,33.14 C46.9715338,32.9396914 46.863347,32.7593801 46.7,32.64 C46.5379134,32.5153602 46.3324421,32.4612888 46.13,32.49 L40.73,33.23 C40.6283711,33.2466828 40.5303115,33.2804965 40.44,33.33 C40.3559365,33.3797259 40.2814327,33.4440701 40.22,33.52 C40.1608336,33.6014805 40.1167997,33.6929355 40.09,33.79 C40.0749147,33.8894311 40.0749147,33.9905689 40.09,34.09 L41,40.21 L34.84,41.05 C34.7379597,41.0650253 34.6396137,41.0989377 34.55,41.15 C34.4631912,41.2001439 34.3881658,41.2683488 34.33,41.35 C34.265299,41.4242265 34.2205606,41.5137033 34.2,41.61 C34.1797959,41.7089795 34.1797959,41.8110205 34.2,41.91 L34.93,47.28 C34.9584662,47.4803086 35.066653,47.6606199 35.23,47.78 C35.3920866,47.9046398 35.5975579,47.9587112 35.8,47.93 L41.96,47.08 L42.8,53.2 C42.8285941,53.4005905 42.9322368,53.5828586 43.09,53.71 C43.2535872,53.8311116 43.4589185,53.8815439 43.66,53.85 L49,53.11 C49.1006389,53.102505 49.1973821,53.0679538 49.28,53.01 C49.3663542,52.9635299 49.4414549,52.8986702 49.5,52.82 C49.560801,52.7432266 49.6050619,52.6547049 49.63,52.56 C49.6549736,52.4615592 49.6549736,52.3584408 49.63,52.26 L48.79,46.14 L55,45.29 C55.1023952,45.2764543 55.2010187,45.2424462 55.29,45.19 C55.3744544,45.1408199 55.4490503,45.0763962 55.51,45 C55.5632189,44.9186389 55.6068425,44.8313918 55.64,44.74 C55.656644,44.6403296 55.6532444,44.5383408 55.63,44.44 L55.63,44.44 Z"></path>
    <path fill="#C3862C" fill-rule="nonzero" d="M51.38 39.86C50.4141801 39.9940039 49.6254342 40.6990296 49.3843474 41.643827 49.1432606 42.5886245 49.4977593 43.5853753 50.2812853 44.1657649 51.0648112 44.7461545 52.1216057 44.794806 52.9551431 44.2888608 53.7886804 43.7829157 54.23326 42.8229519 54.08 41.86 53.8745983 40.5694353 52.6744084 39.6804057 51.38 39.86zM51.92 43.86C51.0594231 43.9716518 50.2682705 43.3726634 50.1422751 42.5140693 50.0162798 41.6554751 50.6019841 40.8544383 51.4583565 40.7141345 52.3147288 40.5738307 53.1254268 41.1460879 53.28 42 53.342808 42.4219722 53.2344939 42.8515536 52.9791226 43.1933004 52.7237513 43.5350473 52.3424733 43.7606556 51.92 43.82L51.92 43.86zM43.55 33.88L41.55 38.81 46.86 38.09 43.55 33.88zM42.84 37.83L43.78 35.47 45.38 37.47 42.84 37.83zM35.49 42.25L36.08 46.58 40.41 46 39.82 41.67 35.49 42.25zM36.77 45.67L36.4 42.94 39.13 42.57 39.51 45.3 36.77 45.67z"></path>
    <polygon fill="#C3862C" fill-rule="nonzero" points="46.39 50 48.27 51.42 47.78 52.07 45.9 50.61 44.47 52.49 43.83 52 45.26 50.12 43.38 48.7 43.87 48.05 45.75 49.48 47.17 47.6 47.81 48.09"></polygon>
    <rect width="59.48" height="59.48" opacity=".5"></rect>
  </g>
</svg>