<svg xmlns="http://www.w3.org/2000/svg" viewBox="0 0 64 64" data-di-res-id="50539102-b0062f61" data-di-rand="1691327796102">
  <defs>
    <linearGradient id="streaming-dark-a" x1="19.127%" x2="80.85%" y1="18.85%" y2="81.231%">
      <stop offset="0%" stop-color="#C3862C"></stop>
      <stop offset="100%" stop-color="#986D29"></stop>
    </linearGradient>
    <linearGradient id="streaming-dark-b" x1="14.271%" x2="85.41%" y1="22.886%" y2="76.891%">
      <stop offset="3%" stop-color="#FDE64E"></stop>
      <stop offset="100%" stop-color="#FCC013"></stop>
    </linearGradient>
  </defs>
  <g fill="none" transform="translate(3 8)">
    <path fill="#000" d="M31.6717926,28.9255631 L31.6717926,28.9255631 C31.9762633,28.5223096 32.3567565,28.1825835 32.7917926,27.9255631 C33.2647837,27.6368428 33.7926061,27.4495511 34.3417926,27.3755631 L36.2817926,27.0555631 L36.0417926,25.2155631 C36.0417926,25.1155631 36.0417926,25.0155631 36.0417926,24.9155631 C35.3999422,24.8112388 34.806108,24.5108286 34.3417926,24.0555631 C33.4192998,22.9132897 32.6151757,21.6802994 31.9417926,20.3755631 L24.3917926,20.3755631 C23.7147106,21.6804191 22.9072601,22.9133727 21.9817926,24.0555631 C21.3243906,24.6981881 20.4411082,25.057246 19.5217926,25.0555631 C18.9717926,25.0555631 17.2217926,25.0555631 17.3317926,23.2255631 C17.4417926,21.3955631 18.5717926,14.6255631 18.5817926,14.5855631 C18.9662559,12.6715821 20.6299276,11.2824163 22.5817926,11.2455631 C23.8617926,11.2455631 24.9417926,12.1455631 26.0517926,12.8255631 L30.3117926,12.8255631 C31.4217926,12.1455631 32.5117926,11.2455631 33.7817926,11.2455631 C35.732263,11.2861466 37.3939076,12.6736199 37.7817926,14.5855631 C37.7817926,14.5855631 38.2517926,17.4455631 38.6117926,19.9355631 C38.917167,19.5404752 39.2894749,19.2020135 39.7117926,18.9355631 C40.1668461,18.6681294 40.6694679,18.4915326 41.1917926,18.4155631 L47.4017926,17.5655631 C49.6196329,17.2815754 51.6512642,18.8399035 51.9517926,21.0555631 L52.1517926,22.5055631 C52.3082426,21.7690778 52.3886643,21.0184758 52.3918114,20.2655631 C52.3971034,17.4428482 51.2795052,14.7339252 49.2854176,12.7360858 C47.29133,10.7382464 44.5845125,9.61555813 41.7617926,9.61556313 C41.4819912,9.60064761 41.2015939,9.60064761 40.9217926,9.61556313 C38.7102788,3.26872065 32.3848335,-0.688316363 25.7100633,0.0994938689 C19.0352931,0.8873041 13.8049105,6.20825315 13.1317926,12.8955631 C10.3707811,13.3557205 7.98104502,15.074308 6.66616404,17.5453437 C5.35128306,20.0163793 5.26096186,22.9585254 6.42179258,25.5055631 L0.571792581,28.8855631 C0.131200807,29.1142474 -0.0916765741,29.6180685 0.0354815703,30.0979105 C0.162639715,30.5777526 0.60577178,30.9050812 1.10179258,30.8855631 L30.1917926,30.8855631 L31.6717926,28.9455631 L31.6717926,28.9255631 Z"></path>
    <path fill="url(#streaming-dark-a)" d="M58.6217926,34.3955631 L57.7817926,28.2555631 C57.7501784,28.027086 57.6320504,27.8194671 57.4517926,27.6755631 C57.264305,27.5389794 57.0321428,27.4782601 56.8017926,27.5055631 L49.8017926,28.5055631 L48.8017926,21.5055631 C48.772663,21.2765467 48.6494656,21.0700098 48.4617926,20.9355631 C48.2818429,20.791447 48.0495383,20.7297411 47.8217926,20.7655631 L41.6317926,21.6055631 C41.5178817,21.6226442 41.4088472,21.6635321 41.3117926,21.7255631 C41.2121888,21.7820753 41.1240114,21.856687 41.0517926,21.9455631 L41.0517926,21.9455631 L39.3617926,24.1655631 C39.2249171,24.3490897 39.1640318,24.578305 39.1917926,24.8055631 L39.8817926,29.8555631 L39.8817926,29.8555631 L34.7917926,30.5555631 C34.6747678,30.5662248 34.5618094,30.6038776 34.4617926,30.6655631 C34.3703118,30.7252936 34.2892375,30.7996117 34.2217926,30.8855631 C34.1912616,30.9334042 34.1645136,30.9835567 34.1417926,31.0355631 C34.1645136,30.9835567 34.1912616,30.9334042 34.2217926,30.8855631 L32.5117926,33.0555631 C32.375851,33.2395399 32.315066,33.4683777 32.3417926,33.6955631 L33.1817926,39.8355631 C33.2128283,40.0666452 33.3353189,40.2755998 33.5217926,40.4155631 C33.7092802,40.5521468 33.9414423,40.6128661 34.1717926,40.5855631 L41.1717926,39.5855631 L42.1717926,46.5855631 C42.2009221,46.8145796 42.3241195,47.0211165 42.5117926,47.1555631 C42.6969552,47.2969799 42.9311033,47.3582186 43.1617926,47.3255631 L49.3417926,46.4755631 C49.5716618,46.4481116 49.7807558,46.3291443 49.9217926,46.1455631 L51.6117926,43.9255631 C51.6812221,43.8365187 51.7322147,43.7345335 51.7617926,43.6255631 C51.7871268,43.5136456 51.7871268,43.3974807 51.7617926,43.2855631 L51.0717926,38.2355631 L56.1617926,37.5355631 C56.3928747,37.5045274 56.6018293,37.3820368 56.7417926,37.1955631 L58.4517926,35.0555631 L58.4517926,35.0555631 C58.5212221,34.9665187 58.5722147,34.8645335 58.6017926,34.7555631 C58.6364834,34.638772 58.643333,34.5154783 58.6217926,34.3955631 L58.6217926,34.3955631 Z"></path>
    <path fill="url(#streaming-dark-b)" d="M58.6217926,34.3955631 L57.7817926,28.2555631 C57.7501784,28.027086 57.6320504,27.8194671 57.4517926,27.6755631 C57.264305,27.5389794 57.0321428,27.4782601 56.8017926,27.5055631 L49.8017926,28.5055631 L48.8017926,21.5055631 C48.772663,21.2765467 48.6494656,21.0700098 48.4617926,20.9355631 C48.2818429,20.791447 48.0495383,20.7297411 47.8217926,20.7655631 L41.6317926,21.6055631 C41.5178817,21.6226442 41.4088472,21.6635321 41.3117926,21.7255631 C41.2121888,21.7820753 41.1240114,21.856687 41.0517926,21.9455631 C40.9887821,22.0370902 40.9414672,22.1384793 40.9117926,22.2455631 C40.8923847,22.3580656 40.8923847,22.4730607 40.9117926,22.5855631 L41.9117926,29.5855631 L34.9117926,30.5855631 C34.7947678,30.5962248 34.6818094,30.6338776 34.5817926,30.6955631 C34.4903118,30.7552936 34.4092375,30.8296117 34.3417926,30.9155631 C34.272363,31.0046076 34.2213704,31.1065928 34.1917926,31.2155631 C34.1712172,31.3313226 34.1712172,31.4498036 34.1917926,31.5655631 L35.0317926,37.6955631 C35.0639617,37.9280879 35.1876984,38.1381228 35.37549,38.2789665 C35.5632816,38.4198102 35.7995614,38.4797878 36.0317926,38.4455631 L43.0317926,37.4455631 L44.0317926,44.4455631 C44.0634068,44.6740403 44.1815347,44.8816591 44.3617926,45.0255631 C44.5484485,45.1634527 44.7824581,45.2210551 45.0117926,45.1855631 L51.0417926,44.3155631 C51.1584145,44.2968808 51.2704105,44.256155 51.3717926,44.1955631 C51.4705595,44.1418911 51.5559987,44.0667045 51.6217926,43.9755631 C51.6912221,43.8865187 51.7422147,43.7845335 51.7717926,43.6755631 C51.7971268,43.5636456 51.7971268,43.4474807 51.7717926,43.3355631 L50.7717926,36.3355631 L57.7717926,35.3355631 C57.8888173,35.3249014 58.0017758,35.2872486 58.1017926,35.2255631 C58.1983685,35.1688097 58.2832209,35.0941396 58.3517926,35.0055631 C58.4212221,34.9165187 58.4722147,34.8145335 58.5017926,34.7055631 C58.5636027,34.6120527 58.604532,34.5063186 58.6217926,34.3955631 Z"></path>
    <path fill="#C3862C" d="M53.7517926 29.1555631C52.2474169 29.3629674 51.1959259 30.750517 51.4030814 32.2549269 51.610237 33.7593369 52.9976128 34.8110572 54.502057 34.6041503 56.0065012 34.3972434 57.0584508 33.0100415 56.8517926 31.5055631 56.755044 30.7815965 56.3732455 30.1262226 55.7911842 29.6849826 55.209123 29.2437427 54.4749813 29.0531618 53.7517926 29.1555631L53.7517926 29.1555631zM54.3817926 33.6855631C53.6523321 33.7879884 52.9330602 33.4406099 52.5597535 32.8055936 52.1864468 32.1705773 52.2327251 31.3731552 52.6769845 30.7855863 53.1212439 30.1980174 53.8758717 29.9361766 54.5885864 30.1222984 55.3013012 30.3084203 55.8315479 30.9057997 55.9317926 31.6355631 56.0625994 32.627771 55.3720928 33.5410216 54.3817926 33.6855631L54.3817926 33.6855631zM44.8017926 22.3255631L42.5617926 27.9655631 48.6217926 27.1355631 44.8017926 22.3255631zM44.0417926 26.8355631L45.0417926 24.1355631 46.8617926 26.4355631 44.0417926 26.8355631zM35.5917926 31.8955631L36.2717926 36.8455631 41.2717926 36.1655631 40.5917926 31.2155631 35.5917926 31.8955631zM37.0417926 35.8055631L36.6117926 32.6855631 39.7417926 32.2555631 40.1617926 35.3755631 37.0417926 35.8055631z"></path>
    <polygon fill="#C3862C" points="48.042 40.716 50.192 42.346 49.642 43.056 47.492 41.426 45.862 43.576 45.132 43.056 46.762 40.916 44.612 39.286 45.172 38.546 47.322 40.176 48.952 38.056 49.682 38.616"></polygon>
  </g>
</svg>