<svg xmlns="http://www.w3.org/2000/svg" viewBox="0 0 64 64" data-di-res-id="c73a7039-a95893ae" data-di-rand="1691327796110">
  <defs>
    <linearGradient id="game-help-dark-a" x1="19.413%" x2="80.574%" y1="19.027%" y2="81.134%">
      <stop offset="0%" stop-color="#C3862C"></stop>
      <stop offset="100%" stop-color="#986D29"></stop>
    </linearGradient>
    <linearGradient id="game-help-dark-b" x1="14.756%" x2="85.481%" y1="23.362%" y2="76.91%">
      <stop offset="3%" stop-color="#FDE64E"></stop>
      <stop offset="100%" stop-color="#FCC013"></stop>
    </linearGradient>
  </defs>
  <g fill="none" fill-rule="evenodd" transform="translate(7 8)">
    <g stroke="#000" stroke-linecap="round" stroke-linejoin="round" stroke-width="4">
      <line x2="1.86" y1="19.52" y2="19.52"></line>
      <line x2="1.86" y1=".5" y2=".5" opacity="0" transform="translate(37.17 19.02)"></line>
      <line x2="1.31" y1="1.32" opacity="0" transform="translate(5.72 32)"></line>
      <line x1="32" x2="33.32" y1="7.03" y2="5.72"></line>
      <line x1="19.52" x2="19.52" y1="39.03" y2="37.17" opacity="0"></line>
      <line x1="19.52" x2="19.52" y1="1.86"></line>
      <line x1="1.32" y1="1.32" opacity="0" transform="translate(32 32)"></line>
      <line x1="7.03" x2="5.72" y1="7.03" y2="5.72"></line>
    </g>
    <g fill="#000" fill-rule="nonzero" transform="translate(9.76 9.76)">
      <path d="M18.4801892 14.12C20.3612515 10.3663082 19.6280206 5.82994524 16.6601892 2.86L16.6601892 2.86C12.848984-.9497012 6.67139448-.9497012 2.86018922 2.86L2.86018922 2.86C-.111025029 5.82758851-.84832875 10.3642223 1.03018922 14.12L5.16018922 21.81C5.3327986 22.1017648 5.64147005 22.2862148 5.98018922 22.3L13.5301892 22.3C13.8689084 22.2862148 14.1775798 22.1017648 14.3501892 21.81L18.4801892 14.12zM13.6301892 26.24C13.6030909 26.9044709 13.0448305 27.4225366 12.3801892 27.4L7.13018922 27.4C6.48953891 27.4 5.97018922 26.8806503 5.97018922 26.24 5.97018922 25.5993497 6.48953891 25.08 7.13018922 25.08L12.3801892 25.08C13.0448305 25.0574634 13.6030909 25.5755291 13.6301892 26.24zM12.0801892 30.24L7.43018922 30.24C7.51056871 31.4649641 8.52759081 32.4174385 9.75518922 32.4174385 10.9827876 32.4174385 11.9998097 31.4649641 12.0801892 30.24L12.0801892 30.24z"></path>
      <circle cx="9.76" cy="9.76" r="9.76"></circle>
    </g>
    <g fill-rule="nonzero" transform="translate(26.853 24.845)">
      <path fill="url(#game-help-dark-a)" d="M22.9970006,11.9953574 L22.2670006,6.62535743 C22.2385344,6.42504884 22.1303476,6.24473755 21.9670006,6.12535743 C21.8090418,6.00020111 21.60637,5.945914 21.4070006,5.97535743 L15.2370006,6.82535743 L14.3970006,0.695357428 C14.3862023,0.489907739 14.2966688,0.296515471 14.1470006,0.155357428 C13.9825795,0.0355507826 13.7790958,-0.0179975648 13.5770006,0.00535742831 L8.14700059,0.785357428 C7.94707573,0.814900998 7.76715072,0.922856004 7.64700059,1.08535743 L7.64700059,1.08535743 L6.14700059,3.02535743 C6.02184426,3.18331618 5.96755716,3.38598803 5.99700059,3.58535743 L6.59700059,8.00535743 L6.59700059,8.00535743 L2.14700059,8.61535743 C2.04460534,8.62890317 1.94598189,8.66291126 1.85700059,8.71535743 C1.77571478,8.76497428 1.70447828,8.82942635 1.64700059,8.90535743 C1.61985166,8.94652522 1.59642566,8.99003064 1.57700059,9.03535743 C1.59642566,8.99003064 1.61985166,8.94652522 1.64700059,8.90535743 L0.147000585,10.8453574 C0.0304387431,11.0072528 -0.0196620622,11.207656 0.00700058545,11.4053574 L0.737000585,16.7753574 C0.762981479,16.974076 0.867413198,17.1541307 1.02700059,17.2753574 C1.18908714,17.3999972 1.39455853,17.4540686 1.59700059,17.4253574 L7.76700059,16.5853574 L8.60700059,22.7053574 C8.63188671,22.9044465 8.73654793,23.0848969 8.89700059,23.2053574 C9.05908714,23.3299972 9.26455853,23.3840686 9.46700059,23.3553574 L14.8670006,22.6153574 C15.0701709,22.5872719 15.2537403,22.4792899 15.3770006,22.3153574 L16.8570006,20.3753574 C16.9178016,20.298584 16.9620625,20.2100623 16.9870006,20.1153574 C17.0074835,20.0164063 17.0074835,19.9143086 16.9870006,19.8153574 L16.3770006,15.4053574 L20.8370006,14.7853574 C21.0368566,14.7627701 21.2181546,14.6576173 21.3370006,14.4953574 L22.8470006,12.5553574 L22.8470006,12.5553574 C22.9097029,12.4798093 22.9541835,12.3908482 22.9770006,12.2953574 C23.0085936,12.1985925 23.0154691,12.0954598 22.9970006,11.9953574 Z"></path>
      <path fill="url(#game-help-dark-b)" d="M22.9970006,11.9953574 L22.2670006,6.62535743 C22.2385344,6.42504884 22.1303476,6.24473755 21.9670006,6.12535743 C21.8090418,6.00020111 21.60637,5.945914 21.4070006,5.97535743 L15.2370006,6.82535743 L14.3970006,0.695357428 C14.3862023,0.489907739 14.2966688,0.296515471 14.1470006,0.155357428 C13.9825795,0.0355507826 13.7790958,-0.0179975648 13.5770006,0.00535742831 L8.14700059,0.785357428 C7.94707573,0.814900998 7.76715072,0.922856004 7.64700059,1.08535743 C7.58429827,1.16090557 7.53981771,1.2498667 7.51700059,1.34535743 C7.49202701,1.44379823 7.49202701,1.54691663 7.51700059,1.64535743 L8.35700059,7.76535743 L2.14700059,8.61535743 C2.04460534,8.62890317 1.94598189,8.66291126 1.85700059,8.71535743 C1.77571478,8.76497428 1.70447828,8.82942635 1.64700059,8.90535743 C1.58619956,8.98213086 1.54193872,9.07065255 1.51700059,9.16535743 C1.49202701,9.26379823 1.49202701,9.36691663 1.51700059,9.46535743 L2.24700059,14.8353574 C2.31373604,15.2471317 2.69264261,15.5335145 3.10700059,15.4853574 L9.27700059,14.6453574 L10.1470006,20.7653574 C10.1760677,20.9630127 10.2798686,21.1419798 10.4370006,21.2653574 C10.5990871,21.3899972 10.8045585,21.4440686 11.0070006,21.4153574 L16.4070006,20.6753574 C16.5090409,20.6603322 16.6073869,20.6264198 16.6970006,20.5753574 C16.8669189,20.4710024 16.9917399,20.3069519 17.0470006,20.1153574 C17.0674835,20.0164063 17.0674835,19.9143086 17.0470006,19.8153574 L16.1470006,13.6953574 L22.3170006,12.8553574 C22.4154842,12.8387333 22.5102672,12.8048822 22.5970006,12.7553574 C22.6838094,12.7052136 22.7588348,12.6370086 22.8170006,12.5553574 C22.8797029,12.4798093 22.9241835,12.3908482 22.9470006,12.2953574 C22.9887291,12.2011829 23.0059304,12.097975 22.9970006,11.9953574 Z"></path>
      <path fill="#C3862C" d="M18.7370006 7.41535743C17.4260045 7.59793001 16.5103276 8.80744478 16.6903317 10.118796 16.8703358 11.4301471 18.0780546 12.3481916 19.3897558 12.1707567 20.7014571 11.9933218 21.6218656 10.7874038 21.4470006 9.47535743 21.3625881 8.84199412 21.0290971 8.26843812 20.5204145 7.88176431 20.011732 7.49509051 19.3698569 7.32722428 18.7370006 7.41535743zM19.2870006 11.4153574C18.6445208 11.5073023 18.0101473 11.2020196 17.6811444 10.6425634 17.3521415 10.0831071 17.3936971 9.38032667 17.7863384 8.86354144 18.1789797 8.34675621 18.8449097 8.11836079 19.4720769 8.28538016 20.0992441 8.45239953 20.5633831 8.98174087 20.6470006 9.62535743 20.7364892 10.4790622 20.1363675 11.2512776 19.2870006 11.3753574L19.2870006 11.4153574zM10.9170006 1.43535743L8.91700059 6.37535743 14.2170006 5.64535743 10.9170006 1.43535743zM10.2070006 5.38535743L11.1470006 3.02535743 12.7370006 5.02535743 10.2070006 5.38535743zM2.85700059 9.81535743L3.44700059 14.1553574 7.77700059 13.5553574 7.14700059 9.21535743 2.85700059 9.81535743zM4.14700059 13.2353574L3.77700059 10.4953574 6.49700059 10.1553574 6.86700059 12.8953574 4.14700059 13.2353574z"></path>
      <polygon fill="#C3862C" points="13.757 17.525 15.627 18.955 15.147 19.595 13.267 18.155 11.837 20.035 11.197 19.545 12.617 17.675 10.747 16.255 11.237 15.615 13.147 17.035 14.537 15.155 15.177 15.635"></polygon>
    </g>
  </g>
</svg>